<?xml version="1.0" standalone="no"?><!DOCTYPE svg PUBLIC "-//W3C//DTD SVG 1.1//EN" "http://www.w3.org/Graphics/SVG/1.1/DTD/svg11.dtd"><svg t="1606813497372" class="icon" viewBox="0 0 1024 1024" version="1.1" xmlns="http://www.w3.org/2000/svg" p-id="1200" xmlns:xlink="http://www.w3.org/1999/xlink" width="200" height="200"><defs><style type="text/css"></style></defs><path d="M208.592593 0h440.737185l142.373926 150.869333a113.777778 113.777778 0 0 0 0.758518 0.758519L929.185185 293.812148V904.154074a113.777778 113.777778 0 0 1-113.777778 113.777778H208.592593a113.777778 113.777778 0 0 1-113.777778-113.777778V113.777778a113.777778 113.777778 0 0 1 113.777778-113.777778z" fill="#FFAEAE" p-id="1201"></path><path d="M208.592593 0h440.737185v179.996444a113.777778 113.777778 0 0 0 113.777778 113.777778H929.185185V904.154074a113.777778 113.777778 0 0 1-113.777778 113.777778H208.592593a113.777778 113.777778 0 0 1-113.777778-113.777778V113.777778a113.777778 113.777778 0 0 1 113.777778-113.777778z" fill="#FF7676" p-id="1202"></path><path d="M369.284741 486.817185c39.139556 0 58.936889 16.611556 58.936889 49.834667 0 33.450667-19.797333 50.289778-59.392 50.289778H328.552296v62.350222H301.89037v-162.474667z m-2.048 22.755556h-38.684445v54.613333h38.684445c11.832889 0 20.48-2.275556 25.941333-6.371555 5.461333-4.323556 8.192-11.377778 8.192-21.162667 0-9.784889-2.958222-16.611556-8.419555-20.707556-5.461333-4.323556-14.108444-6.371556-25.713778-6.371555z m83.740444-22.755556v162.474667h59.392c26.396444 0 46.193778-7.281778 59.847111-21.845333 12.970667-13.880889 19.569778-33.678222 19.569778-59.392 0-25.941333-6.599111-45.738667-19.569778-59.392-13.653333-14.563556-33.450667-21.845333-59.847111-21.845334H450.939259z m26.624 22.755556h27.761778c20.252444 0 35.043556 4.551111 44.373333 13.880889 9.102222 9.102222 13.653333 24.120889 13.653334 44.600889 0 20.024889-4.551111 34.816-13.653334 44.373333-9.329778 9.329778-24.120889 14.108444-44.373333 14.108444h-27.761778v-116.963555z m137.216-22.755556h110.819556v22.755556h-84.195556v45.056h79.416889v22.755555h-79.416889v71.907556h-26.624v-162.474667z" fill="#FFFFFF" p-id="1203"></path></svg>