<?xml version="1.0" standalone="no"?><!DOCTYPE svg PUBLIC "-//W3C//DTD SVG 1.1//EN" "http://www.w3.org/Graphics/SVG/1.1/DTD/svg11.dtd"><svg t="1606813814841" class="icon" viewBox="0 0 1024 1024" version="1.1" xmlns="http://www.w3.org/2000/svg" p-id="2003" xmlns:xlink="http://www.w3.org/1999/xlink" width="200" height="200"><defs><style type="text/css"></style></defs><path d="M170.666667 0h512l256 256v682.666667a85.333333 85.333333 0 0 1-85.333334 85.333333H170.666667a85.333333 85.333333 0 0 1-85.333334-85.333333V85.333333a85.333333 85.333333 0 0 1 85.333334-85.333333z" fill="#FF9333" p-id="2004"></path><path d="M453.973333 573.482667h81.792c20.48-0.298667 35.882667-6.656 46.250667-18.986667 9.813333-11.989333 14.72-25.344 14.72-39.978667 0-12.202667-2.005333-22.442667-5.973333-30.762666a45.909333 45.909333 0 0 0-17.493334-17.749334 69.333333 69.333333 0 0 0-39.509333-10.24h-79.786667v117.76zM398.805333 403.498667h131.968c14.336 0 28.16 1.322667 41.514667 4.010666 13.354667 3.498667 26.837333 10.666667 40.533333 21.504 11.477333 8.149333 20.821333 19.84 27.989334 34.986667 7.466667 14.677333 11.221333 32 11.221333 52.010667 0 27.008-9.472 51.584-28.501333 73.728-19.498667 23.338667-48 35.328-85.504 36.010666h-83.968V768H398.762667V403.498667z" fill="#FFFFFF" p-id="2005"></path><path d="M682.666667 0l256 256h-170.666667a85.333333 85.333333 0 0 1-85.333333-85.333333V0z" fill="#FFFFFF" fill-opacity=".5" p-id="2006"></path></svg>